<?xml version="1.0" encoding="UTF-8"?>
<!DOCTYPE svg  PUBLIC '-//W3C//DTD SVG 1.1//EN'  'http://www.w3.org/Graphics/SVG/1.1/DTD/svg11.dtd'>
<svg enable-background="new 0 0 2560 1600" version="1.1" viewBox="0 0 2560 1600" xml:space="preserve" xmlns="http://www.w3.org/2000/svg">
<pattern id="a" width="70" height="121.2" overflow="visible" patternUnits="userSpaceOnUse" viewBox="71 -162.337 70 121.2">
	<g fill="none">
		<polygon points="71 -162.34 141 -162.34 141 -41.137 71 -41.137"/>
		<g stroke="#000" stroke-miterlimit="10">
			<polygon points="176 -61.487 141 -41.281 141 -41.281 106 -61.487 141 -81.696"/>
			<polygon points="176 -61.487 176 -21.074 141 -0.866 141 -41.281 141 -41.281"/>
			<polygon points="141 -41.281 141 -0.866 106 -21.074 106 -61.487"/>
		</g>
		<g stroke="#000" stroke-miterlimit="10">
			<polygon points="106 -61.487 71.001 -41.281 70.999 -41.281 36 -61.487 70.999 -81.696"/>
			<polygon points="106 -61.487 106 -21.074 70.999 -0.866 70.999 -41.281 71.001 -41.281"/>
			<polygon points="70.999 -41.281 70.999 -0.866 36 -21.074 36 -61.487"/>
		</g>
		<g stroke="#000" stroke-miterlimit="10">
			<polygon points="211 -122.09 176 -101.88 176 -101.88 141 -122.09 176 -142.3"/>
			<polygon points="176 -101.88 176 -61.466 141 -81.674 141 -122.09"/>
		</g>
		<g stroke="#000" stroke-miterlimit="10">
			<polygon points="141 -122.09 106 -101.88 106 -101.88 71 -122.09 106 -142.3"/>
			<polygon points="141 -122.09 141 -81.674 106 -61.466 106 -101.88 106 -101.88"/>
			<polygon points="106 -101.88 106 -61.466 71 -81.674 71 -122.09"/>
		</g>
		<g stroke="#000" stroke-miterlimit="10">
			<polygon points="71 -122.09 36.001 -101.88 35.999 -101.88 1 -122.09 35.999 -142.3"/>
			<polygon points="71 -122.09 71 -81.674 35.999 -61.466 35.999 -101.88 36.001 -101.88"/>
		</g>
		<g stroke="#000" stroke-miterlimit="10">
			<polygon points="176 -182.69 141 -162.48 141 -162.48 106 -182.69 141 -202.9"/>
			<polygon points="176 -182.69 176 -142.27 141 -122.07 141 -162.48 141 -162.48"/>
			<polygon points="141 -162.48 141 -122.07 106 -142.27 106 -182.69"/>
		</g>
		<g stroke="#000" stroke-miterlimit="10">
			<polygon points="106 -182.69 71.001 -162.48 70.999 -162.48 36 -182.69 70.999 -202.9"/>
			<polygon points="106 -182.69 106 -142.27 70.999 -122.07 70.999 -162.48 71.001 -162.48"/>
			<polygon points="70.999 -162.48 70.999 -122.07 36 -142.27 36 -182.69"/>
		</g>
	</g>
</pattern>
<rect x=".089" y="-.383" width="2560" height="1600" fill="url(#a)"/>
</svg>
